<svg width="52" height="119" viewBox="0 0 52 119" fill="none" xmlns="http://www.w3.org/2000/svg">
<path fill-rule="evenodd" clip-rule="evenodd" d="M18.0018 20V10H23.0018H24.9233H28.0018C28.0018 15.5228 23.5247 20 18.0018 20Z" fill="white"/>
<path d="M18.0018 20C12.479 20 8.00182 15.5228 8.00182 10H18.0018V20Z" fill="#093524"/>
<path fill-rule="evenodd" clip-rule="evenodd" d="M28.0018 10C28.0018 4.47715 23.5247 0 18.0018 0C12.479 0 8.00182 4.47715 8.00182 10H18.0018H23.0018H24.9233H28.0018Z" fill="#093524"/>
<circle cx="1" cy="1" r="1" transform="matrix(-1 0 0 1 24.0018 13)" fill="#093524"/>
<circle cx="2" cy="2" r="2" transform="matrix(-1 0 0 1 20.0018 12)" fill="white"/>
<path d="M0.00181961 38C0.00181961 28.0589 8.06069 20 18.0018 20C27.9429 20 36.0018 28.0589 36.0018 38V63H0.00181961V38Z" fill="#156949"/>
<path d="M18.7084 29.0356L18.663 42.5565L23.1011 36.3151L33.0691 40.4317L20.69 58.0604C19.381 59.9245 17.2435 61.0309 14.9658 61.0232C11.1186 61.0103 8.01033 57.8811 8.02324 54.0339L8.10729 29L18.7084 29.0356Z" fill="#156949"/>
<path d="M29.4778 22.3297L32.3354 26.2839L25.0896 23.8039L19.3954 32.9627L39.7339 40.0585C41.8846 40.8088 44.2663 40.4603 46.1119 39.1252C49.2289 36.8703 49.9281 32.5156 47.6734 29.3983L38.0671 16.1162L29.4778 22.3297Z" fill="#156949"/>
<circle cx="26.913" cy="40.8436" r="6.22051" transform="rotate(-56.8257 26.913 40.8436)" fill="white"/>
<circle cx="34.9684" cy="21.3357" r="6.22051" fill="white"/>
<rect x="4.00182" y="63" width="25" height="44" fill="#093524"/>
<path d="M33.9979 113C33.9979 109.686 31.3116 107 27.9979 107H13.9979V119H27.9979C31.3116 119 33.9979 116.314 33.9979 113Z" fill="#093524"/>
<path d="M24.0018 113C24.0018 109.686 21.3155 107 18.0018 107H4.00182V119H18.0018C21.3155 119 24.0018 116.314 24.0018 113Z" fill="#156949"/>
</svg>
