<svg width="47" height="119" viewBox="0 0 47 119" fill="none" xmlns="http://www.w3.org/2000/svg">
<path d="M4 113C4 109.686 6.68629 107 10 107H24V119H10C6.68629 119 4 116.314 4 113Z" fill="#093524"/>
<path d="M0 113C0 109.686 2.68629 107 6 107H20V119H6C2.68629 119 0 116.314 0 113Z" fill="#093524"/>
<rect x="5" y="63" width="19" height="44" fill="#156949"/>
<path d="M20.0016 36.4795L24.3592 38.6733L20.7606 31.913L30.5 27.5L39.1632 43.7971C40.2278 45.7997 40.2538 48.1946 39.233 50.2199C37.4967 53.6647 33.2968 55.0499 29.8518 53.314L15.2302 45.9462L20.0016 36.4795Z" fill="#156949"/>
<path d="M33.3437 39.0651C34.7493 28.9913 26.9255 20 16.7541 20C7.50324 20 0.00390625 27.4993 0.00390625 36.7502V63H30.0039L33.3437 39.0651Z" fill="#C7F360"/>
<path d="M17.6822 34.1067C17.8554 30.2342 14.7626 27 10.8862 27C7.09673 27 4.03776 30.0965 4.08397 33.8857L4.5 68H16.1667L17.6822 34.1067Z" fill="#C7F360"/>
<circle cx="10.2205" cy="69.2205" r="6.22051" fill="white"/>
<path d="M26 10H16C16 14.5 20 17.5 22.6146 17.5C24.6906 15.6676 26 12.9867 26 10Z" fill="#093524"/>
<path d="M26 10C26 4.47715 21.5228 0 16 0C13.4806 0 11.1789 0.931655 9.42046 2.46923C7.32412 4.30228 6 6.99651 6 10H16H26Z" fill="#093524"/>
<path d="M6 10C6 15.5228 10.4772 20 16 20C18.5361 20 20.8517 19.0559 22.6146 17.5C20 17.5 16 14.5 16 10H6Z" fill="white"/>
<circle cx="11" cy="14" r="1" fill="#093524"/>
<circle cx="24.2205" cy="19.2205" r="6.22051" fill="#093524"/>
<circle cx="27.2205" cy="28.2205" r="6.22051" fill="#093524"/>
<circle cx="11" cy="14" r="1" fill="#093524"/>
</svg>
