<svg width="61" height="121" viewBox="0 0 61 121" fill="none" xmlns="http://www.w3.org/2000/svg">
<path fill-rule="evenodd" clip-rule="evenodd" d="M32.74 20V10H27.74H25.8185H22.74C22.74 15.5228 27.2171 20 32.74 20Z" fill="white"/>
<path fill-rule="evenodd" clip-rule="evenodd" d="M22.74 10C22.74 4.47715 27.2171 0 32.74 0C38.2628 0 42.74 4.47715 42.74 10H32.74H27.74H25.8185H22.74Z" fill="#C7F360"/>
<path d="M32.74 20C38.2628 20 42.74 15.5228 42.74 10H32.74V20Z" fill="white"/>
<circle cx="27.74" cy="14" r="1" fill="#093524"/>
<rect x="22.74" y="55.3848" width="18" height="52.5359" transform="rotate(-14.0968 22.74 55.3848)" fill="#F4F5F5"/>
<path d="M59.3029 106.556C58.4958 103.342 55.2361 101.391 52.0222 102.198L35.5341 106.338L38.4569 117.977L54.9449 113.836C58.1589 113.029 60.11 109.77 59.3029 106.556Z" fill="#093524"/>
<rect x="26.0251" y="52" width="18" height="52.5359" transform="rotate(13.7025 26.0251 52)" fill="#F4F5F5"/>
<path d="M34.5062 114.319C35.2911 111.1 33.3176 107.854 30.0982 107.069L13.5821 103.042L10.7395 114.7L27.2557 118.727C30.4751 119.512 33.7212 117.539 34.5062 114.319Z" fill="#093524"/>
<circle cx="6.22051" cy="6.22051" r="6.22051" transform="matrix(-0.926311 0.37676 0.37676 0.926311 32.2634 15)" fill="white"/>
<path d="M33.74 20C26.4408 20 20.1565 24.3446 17.3317 30.5889L14.695 34.8447L13.3366 27.082L2.73605 27.1387L4.94015 43.3057C5.45593 47.088 8.69707 49.9011 12.5144 49.8809C13.6473 49.8748 14.7453 49.6141 15.74 49.1406V63H51.74V38C51.74 28.0589 43.6811 20 33.74 20Z" fill="#093524"/>
<circle cx="6.22051" cy="6.22051" r="6.22051" transform="matrix(-0.926311 0.37676 0.37676 0.926311 11.5251 18.25)" fill="white"/>
</svg>
