<svg width="56" height="96" viewBox="0 0 56 96" fill="none" xmlns="http://www.w3.org/2000/svg">
<path d="M33.0266 35.2384C34.7269 25.1766 26.9726 16.0014 16.7681 16.0009C7.66066 16.0004 0.277344 23.3833 0.277344 32.4908V52L30.2773 51.5068L33.0266 35.2384Z" fill="#C7F360"/>
<path d="M18.2773 20C15.758 20 13.4562 19.0683 11.6978 17.5308V13.2441L24.8569 13.2441V17.5308C23.0985 19.0683 20.7967 20 18.2773 20Z" fill="white"/>
<path d="M8.27734 10C8.27734 4.47715 12.7545 0 18.2773 0C21.9788 0 25.2105 2.01099 26.9395 5C27.7904 6.47087 28.2773 8.17856 28.2773 10C28.2773 13.0035 26.9532 15.6977 24.8569 17.5308V13.2441L11.6978 13.2441V17.5308C9.60147 15.6977 8.27734 13.0035 8.27734 10Z" fill="#093524"/>
<circle cx="14.5234" cy="16.2441" r="1" fill="#093524"/>
<circle cx="21.5234" cy="16.2441" r="1" fill="#093524"/>
<path fill-rule="evenodd" clip-rule="evenodd" d="M29.2773 52C40.8753 52 50.2773 61.402 50.2773 73V84H18.2773V73C18.2773 71.3431 16.9342 70 15.2773 70C9.75462 69.9999 5.27734 65.5228 5.27734 60V52H29.2773Z" fill="#156949"/>
<path d="M55.2773 90C55.2773 86.6863 52.5911 84 49.2773 84L32.2773 84V96H49.2773C52.5911 96 55.2773 93.3137 55.2773 90Z" fill="#156949"/>
<path d="M41.2773 90C41.2773 86.6863 38.5911 84 35.2773 84L18.2773 84L18.2773 96H35.2773C38.5911 96 41.2773 93.3137 41.2773 90Z" fill="#156949"/>
<path fill-rule="evenodd" clip-rule="evenodd" d="M10.7998 32.5781V48.0762L25.002 48.0771L25.6143 58.7305H5.32715C2.38505 58.7305 -4.62057e-07 56.3454 0 53.4033C1.17259e-07 52.9797 0.0510806 52.5679 0.144531 52.1729L0.147461 32.5781H10.7998Z" fill="white"/>
<circle cx="24.4979" cy="53.2205" r="6.22051" fill="white"/>
<circle cx="36.4978" cy="53.2205" r="6.22051" fill="white"/>
</svg>
