<svg width="94" height="136" viewBox="0 0 94 136" fill="none" xmlns="http://www.w3.org/2000/svg">
<path d="M47.9305 19.8145C53.4534 19.8145 57.9305 24.2916 57.9305 29.8145C57.9305 29.9821 57.9264 30.1488 57.9183 30.3145L55.4344 28.9467L47.9305 24.8145L40.4266 28.5664L39.6661 28.9467L37.9305 29.8145C37.9305 24.2916 42.4077 19.8145 47.9305 19.8145Z" fill="#C7F360"/>
<path d="M37.9305 29.8145L39.6661 28.9467L40.4266 28.5664V36.4246C38.8731 34.6623 37.9305 32.3484 37.9305 29.8145Z" fill="#C7F360"/>
<path fill-rule="evenodd" clip-rule="evenodd" d="M47.9305 39.8145C44.9417 39.8145 42.2591 38.5032 40.4266 36.4246V28.5664L47.9305 24.8145L55.4344 28.9467V36.4246C53.602 38.5032 50.9194 39.8145 47.9305 39.8145Z" fill="white"/>
<path d="M55.4344 28.9467L57.9183 30.3145C57.8031 32.6522 56.8852 34.7789 55.4344 36.4246V28.9467Z" fill="#C7F360"/>
<path fill-rule="evenodd" clip-rule="evenodd" d="M61.4391 79.8151L63.9353 55.963L70.646 22.7542L59.3258 19.9345L54.5085 38.3142C52.4201 37.3543 50.0916 36.8159 47.6262 36.8159C45.2004 36.8159 42.9037 37.338 40.8373 38.2723L36.0333 19.9341L24.7125 22.7539L31.1956 54.8405L32.939 79.815L61.4391 79.8151Z" fill="#156949"/>
<path fill-rule="evenodd" clip-rule="evenodd" d="M61.4391 79.8151L63.9353 55.963L70.646 22.7542L59.3258 19.9345L54.5085 38.3142C52.4201 37.3543 50.0916 36.8159 47.6262 36.8159C45.2004 36.8159 42.9037 37.338 40.8373 38.2723L36.0333 19.9341L24.7125 22.7539L31.1956 54.8405L32.939 79.815L61.4391 79.8151Z" fill="#156949"/>
<path fill-rule="evenodd" clip-rule="evenodd" d="M61.4355 79.8145L63.9281 55.9903L67.5009 38.3139H54.5084C52.4193 37.3532 50.0893 36.8152 47.6227 36.8152C45.1976 36.8153 42.9017 37.337 40.8358 38.2708H27.8469L31.1918 54.8253L32.9355 79.8144L61.4355 79.8145Z" fill="#156949"/>
<path fill-rule="evenodd" clip-rule="evenodd" d="M61.4355 79.8145L63.9281 55.9903L67.5009 38.3139H54.5084C52.4193 37.3532 50.0893 36.8152 47.6227 36.8152C45.1976 36.8153 42.9017 37.337 40.8358 38.2708H27.8469L31.1918 54.8253L32.9355 79.8144L61.4355 79.8145Z" fill="#156949"/>
<path fill-rule="evenodd" clip-rule="evenodd" d="M27.8469 38.2708L39.7993 34.3145L36.032 19.9353L24.7118 22.7544L27.8469 38.2708Z" fill="#156949"/>
<path fill-rule="evenodd" clip-rule="evenodd" d="M27.8469 38.2708L39.7993 34.3145L36.032 19.9353L24.7118 22.7544L27.8469 38.2708Z" fill="white"/>
<path d="M27.8469 38.2708H40.8358L39.7993 34.3145L27.8469 38.2708Z" fill="#156949"/>
<path d="M27.8469 38.2708H40.8358L39.7993 34.3145L27.8469 38.2708Z" fill="#156949"/>
<path fill-rule="evenodd" clip-rule="evenodd" d="M59.325 19.9336L70.6459 22.7539L67.5009 38.3139L55.5565 34.3145L59.325 19.9336Z" fill="#156949"/>
<path fill-rule="evenodd" clip-rule="evenodd" d="M59.325 19.9336L70.6459 22.7539L67.5009 38.3139L55.5565 34.3145L59.325 19.9336Z" fill="white"/>
<path d="M54.5084 38.3139H67.5009L55.5565 34.3145L54.5084 38.3139Z" fill="#156949"/>
<path d="M54.5084 38.3139H67.5009L55.5565 34.3145L54.5084 38.3139Z" fill="#156949"/>
<circle cx="43.9344" cy="32.8145" r="1" fill="#093524"/>
<circle cx="51.9305" cy="32.8145" r="1" fill="#093524"/>
<rect x="34.9344" y="79.8145" width="25" height="44" fill="white"/>
<rect x="34.9344" y="79.8145" width="25" height="22" fill="#093524"/>
<path d="M65.9305 129.812C65.9305 126.499 63.2443 123.812 59.9305 123.812H45.9305V135.812H59.9305C63.2443 135.812 65.9305 133.126 65.9305 129.812Z" fill="#093524"/>
<path d="M29.9344 129.812C29.9344 126.499 32.6207 123.812 35.9344 123.812H49.9344V135.812H35.9344C32.6207 135.812 29.9344 133.126 29.9344 129.812Z" fill="#093524"/>
<circle cx="30.155" cy="20.035" r="6.22051" fill="white"/>
<circle cx="6.22051" cy="6.22051" r="6.22051" transform="matrix(1 0 0 -1 58.9344 26.2559)" fill="white"/>
<circle cx="6.22051" cy="6.22051" r="6.22051" transform="matrix(1 0 0 -1 41.9344 20.2559)" fill="#C7F360"/>
</svg>
