<svg width="811" height="772" viewBox="0 0 811 772" fill="none" xmlns="http://www.w3.org/2000/svg">
<path d="M174.5 161L674.5 160L730.5 235V468H174.5L174.5 161Z" fill="#093524"/>
<path d="M81 237H555.91H727V535H81V237Z" fill="#093524"/>
<path d="M81 237H731V535H81V237Z" fill="#F4F5F5"/>
<rect x="81" y="237" width="223" height="298" fill="#156949"/>
<rect x="504" y="449" width="39" height="86" fill="#093524"/>
<path d="M81 396L731 396" stroke="#156949" stroke-width="2"/>
<path d="M81 323L731 323" stroke="#156949" stroke-width="2"/>
<path d="M81 396L304 396" stroke="#F4F5F5" stroke-width="2"/>
<path d="M81 323L304 323" stroke="#F4F5F5" stroke-width="2"/>
<rect x="172" y="410" width="40" height="39" fill="#093524"/>
<rect x="172" y="341" width="40" height="39" fill="#093524"/>
<rect x="172" y="270" width="40" height="39" fill="#093524"/>
<rect x="357" y="410" width="40" height="39" fill="#093524"/>
<rect x="357" y="341" width="40" height="39" fill="#093524"/>
<rect x="357" y="270" width="40" height="39" fill="#093524"/>
<rect x="431" y="410" width="40" height="39" fill="#093524"/>
<rect x="431" y="341" width="40" height="39" fill="#093524"/>
<rect x="431" y="270" width="40" height="39" fill="#093524"/>
<rect x="576" y="411" width="40" height="39" fill="#093524"/>
<rect x="576" y="342" width="40" height="39" fill="#093524"/>
<rect x="576" y="271" width="40" height="39" fill="#093524"/>
<rect x="504" y="342" width="40" height="39" fill="#093524"/>
<rect x="504" y="271" width="40" height="39" fill="#093524"/>
<rect x="649" y="411" width="40" height="39" fill="#093524"/>
<rect x="649" y="342" width="40" height="39" fill="#093524"/>
<rect x="649" y="271" width="40" height="39" fill="#093524"/>
<path d="M192.5 162H248.25L304 237H81L136.75 162H192.5Z" fill="#156949"/>
<path d="M304 237L248.25 162M81 237L136.75 162M136.75 162H192.5H248.25M136.75 162H248.25" stroke="#093524" stroke-width="2"/>
</svg>
