<svg width="945" height="772" viewBox="0 0 945 772" fill="none" xmlns="http://www.w3.org/2000/svg">
<path d="M138 237H530.572H672V535H138V237Z" fill="#093524"/>
<rect x="231" y="449" width="39" height="86" fill="#093524"/>
<rect x="230" y="341" width="40" height="39" fill="#093524"/>
<rect x="138" y="312" width="224" height="223" fill="#156949"/>
<rect x="230.414" y="449" width="39.1749" height="86" fill="#093524"/>
<rect width="224" height="2" transform="matrix(1 0 0 -1 138 259)" fill="#093524"/>
<path d="M250 259H362V312H138V259H250Z" fill="#156949"/>
<rect x="229.406" y="341" width="40.1794" height="39" fill="#093524"/>
<path d="M249 335V387.5" stroke="#156949" stroke-width="2"/>
<path d="M275.5 361H223" stroke="#156949" stroke-width="2"/>
<rect x="361" y="259" width="310" height="276" fill="#F4F5F5"/>
<rect x="449" y="258" width="221" height="276" fill="#F4F5F5" stroke="#093524" stroke-width="2"/>
<mask id="path-14-inside-1_9004_5139" fill="white">
<path d="M361 259H671V535H361V259Z"/>
</mask>
<path d="M671 535V537H673V535H671ZM361 535H359V537H361V535ZM671 259H669V535H671H673V259H671ZM671 535V533H361V535V537H671V535ZM361 535H363V259H361H359V535H361Z" fill="#156949" mask="url(#path-14-inside-1_9004_5139)"/>
<mask id="mask0_9004_5139" style="mask-type:alpha" maskUnits="userSpaceOnUse" x="338" y="215" width="102" height="39">
<path d="M338 215H389L440 254H389L338 215Z" fill="#C7F360"/>
</mask>
<g mask="url(#mask0_9004_5139)">
<path d="M338 215H389L440 254H389L338 215Z" fill="#C7F360"/>
<path d="M345 226H420" stroke="#093524" stroke-width="2"/>
<path d="M361 238H436" stroke="#093524" stroke-width="2"/>
<path d="M363 213L420 256" stroke="#093524" stroke-width="2"/>
</g>
<mask id="mask1_9004_5139" style="mask-type:alpha" maskUnits="userSpaceOnUse" x="414" y="215" width="102" height="39">
<path d="M414 215H465L516 254H465L414 215Z" fill="#C7F360"/>
</mask>
<g mask="url(#mask1_9004_5139)">
<path d="M414 215H465L516 254H465L414 215Z" fill="#C7F360"/>
<path d="M421 226H496" stroke="#093524" stroke-width="2"/>
<path d="M437 238H512" stroke="#093524" stroke-width="2"/>
<path d="M439 213L496 256" stroke="#093524" stroke-width="2"/>
</g>
<mask id="mask2_9004_5139" style="mask-type:alpha" maskUnits="userSpaceOnUse" x="486" y="215" width="102" height="39">
<path d="M486 215H537L588 254H537L486 215Z" fill="#C7F360"/>
</mask>
<g mask="url(#mask2_9004_5139)">
<path d="M486 215H537L588 254H537L486 215Z" fill="#C7F360"/>
<path d="M493 226H568" stroke="#093524" stroke-width="2"/>
<path d="M509 238H584" stroke="#093524" stroke-width="2"/>
<path d="M511 213L568 256" stroke="#093524" stroke-width="2"/>
</g>
<rect x="362" y="592" width="87" height="91" fill="#F4F5F5"/>
<rect x="362" y="580" width="87" height="24" rx="12" fill="#F4F5F5"/>
<rect x="362" y="660" width="87" height="23" fill="#156949"/>
<rect x="362" y="648" width="87" height="24" rx="12" fill="#C7F360"/>
<rect x="394" y="577" width="23" height="12" fill="#F4F5F5"/>
<rect x="394" y="574" width="23" height="6" rx="3" fill="#F4F5F5"/>
<path d="M413.832 613L392 641.063H402.071L398.168 663L420 634.937H409.929L413.832 613Z" fill="#093524"/>
<path d="M406 259V574" stroke="#156949" stroke-width="2" stroke-dasharray="4 4"/>
<rect x="89" y="535" width="811" height="2" fill="#093524"/>
<rect x="585" y="427" width="38" height="40" fill="#C7F360"/>
<path d="M608.476 432L596 448.277H601.755L599.524 461L612 444.723H606.245L608.476 432Z" fill="#093524"/>
<path d="M604 466V492C604 498.627 609.373 504 616 504H699" stroke="#156949" stroke-width="2" stroke-dasharray="4 4"/>
<rect x="699" y="485.4" width="177.312" height="36.8007" rx="18.4004" fill="#156949"/>
<path fill-rule="evenodd" clip-rule="evenodd" d="M787.236 467H765.072C754.91 467 746.672 475.238 746.672 485.4H787.236V467Z" fill="#F4F5F5"/>
<path d="M827.801 485.4C827.801 475.238 819.563 467 809.4 467H787.236V485.4H827.801Z" fill="#156949"/>
<rect x="738.289" y="513.818" width="16.7642" height="15.9278" rx="7.96389" fill="#F4F5F5" stroke="#093524" stroke-width="10"/>
<rect x="819.422" y="513.818" width="16.7642" height="15.9278" rx="7.96389" fill="#F4F5F5" stroke="#093524" stroke-width="10"/>
</svg>
