<svg width="811" height="772" viewBox="0 0 811 772" fill="none" xmlns="http://www.w3.org/2000/svg">
<rect x="0.5" y="0.5" width="810" height="771" stroke="black"/>
<path d="M138 237H530.572H672V535H138V237Z" fill="#093524"/>
<rect x="231" y="449" width="39" height="86" fill="#093524"/>
<rect x="362" y="259" width="310" height="276" fill="#156949"/>
<rect x="462" y="410" width="40" height="39" fill="#093524"/>
<rect x="531" y="410" width="40" height="39" fill="#093524"/>
<rect x="230" y="341" width="40" height="39" fill="#093524"/>
<path d="M250 335V387.5" stroke="#C7F360" stroke-width="2"/>
<path d="M276.5 361H224" stroke="#C7F360" stroke-width="2"/>
<path d="M482 404V456.5" stroke="#156949" stroke-width="2"/>
<path d="M508.5 430H456" stroke="#156949" stroke-width="2"/>
<path d="M551 404V456.5" stroke="#156949" stroke-width="2"/>
<path d="M577.5 430H525" stroke="#156949" stroke-width="2"/>
<rect x="138" y="312" width="224" height="223" fill="#F4F5F5"/>
<rect x="230.414" y="449" width="39.1749" height="86" fill="#093524"/>
<rect width="224" height="2" transform="matrix(1 0 0 -1 138 259)" fill="#093524"/>
<path d="M250 259H362V312H138V259H250Z" fill="#F4F5F5"/>
<rect x="229.406" y="341" width="40.1794" height="39" fill="#093524"/>
<path d="M249 335V387.5" stroke="#F4F5F5" stroke-width="2"/>
<path d="M275.5 361H223" stroke="#F4F5F5" stroke-width="2"/>
</svg>
