<svg width="811" height="772" viewBox="0 0 811 772" fill="none" xmlns="http://www.w3.org/2000/svg">
<path d="M193 161H619L730.5 236V459H193V161Z" fill="#093524"/>
<rect x="81" y="236" width="650" height="298" fill="#C7F360"/>
<rect x="81" y="236" width="223" height="298" fill="#156949"/>
<rect x="504" y="448" width="39" height="86" fill="#093524"/>
<path d="M192.5 161L304 236H81L192.5 161Z" fill="#156949"/>
<path d="M81 395L731 395" stroke="#156949" stroke-width="2"/>
<path d="M81 322L731 322" stroke="#156949" stroke-width="2"/>
<path d="M81 395L304 395" stroke="#C7F360" stroke-width="2"/>
<path d="M81 322L304 322" stroke="#C7F360" stroke-width="2"/>
<rect x="172" y="409" width="40" height="39" fill="#093524"/>
<rect x="172" y="340" width="40" height="39" fill="#093524"/>
<rect x="172" y="269" width="40" height="39" fill="#093524"/>
<rect x="357" y="409" width="40" height="39" fill="#093524"/>
<rect x="357" y="340" width="40" height="39" fill="#093524"/>
<rect x="357" y="269" width="40" height="39" fill="#093524"/>
<rect x="431" y="409" width="40" height="39" fill="#093524"/>
<rect x="431" y="340" width="40" height="39" fill="#093524"/>
<rect x="431" y="269" width="40" height="39" fill="#093524"/>
<rect x="576" y="410" width="40" height="39" fill="#093524"/>
<rect x="576" y="341" width="40" height="39" fill="#093524"/>
<rect x="576" y="270" width="40" height="39" fill="#093524"/>
<rect x="504" y="341" width="40" height="39" fill="#093524"/>
<rect x="504" y="270" width="40" height="39" fill="#093524"/>
<rect x="649" y="410" width="40" height="39" fill="#093524"/>
<rect x="649" y="341" width="40" height="39" fill="#093524"/>
<rect x="649" y="270" width="40" height="39" fill="#093524"/>
</svg>
