<svg width="1113" height="772" viewBox="0 0 1113 772" fill="none" xmlns="http://www.w3.org/2000/svg">
<path d="M234.5 161L734.5 160L790.5 235V468H234.5L234.5 161Z" fill="#093524"/>
<path d="M141 237H615.91H787V535H141V237Z" fill="#093524"/>
<path d="M141 237H791V535H141V237Z" fill="#156949"/>
<rect x="141" y="237" width="223" height="298" fill="#156949"/>
<rect x="363" y="397" width="428" height="138" fill="#F4F5F5"/>
<rect x="483" y="396" width="307" height="138" fill="#F4F5F5" stroke="#093524" stroke-width="2"/>
<mask id="path-8-inside-1_9006_8075" fill="white">
<path d="M363 397H791V535H363V397Z"/>
</mask>
<path d="M791 535V537H793V535H791ZM363 535H361V537H363V535ZM791 397H789V535H791H793V397H791ZM791 535V533H363V535V537H791V535ZM363 535H365V397H363H361V535H363Z" fill="#156949" mask="url(#path-8-inside-1_9006_8075)"/>
<path d="M141 396L791 396" stroke="#F4F5F5" stroke-width="2"/>
<path d="M141 323L791 323" stroke="#F4F5F5" stroke-width="2"/>
<path d="M141 396L364 396" stroke="#F4F5F5" stroke-width="2"/>
<path d="M141 323L364 323" stroke="#F4F5F5" stroke-width="2"/>
<rect x="232" y="410" width="40" height="39" fill="#093524"/>
<rect x="232" y="341" width="40" height="39" fill="#093524"/>
<rect x="232" y="270" width="40" height="39" fill="#093524"/>
<rect x="417" y="341" width="40" height="39" fill="#093524"/>
<rect x="417" y="270" width="40" height="39" fill="#093524"/>
<rect x="491" y="341" width="40" height="39" fill="#093524"/>
<rect x="491" y="270" width="40" height="39" fill="#093524"/>
<rect x="636" y="342" width="40" height="39" fill="#093524"/>
<rect x="636" y="271" width="40" height="39" fill="#093524"/>
<rect x="564" y="342" width="40" height="39" fill="#093524"/>
<rect x="564" y="271" width="40" height="39" fill="#093524"/>
<rect x="709" y="342" width="40" height="39" fill="#093524"/>
<rect x="709" y="271" width="40" height="39" fill="#093524"/>
<path d="M252.5 162H308.25L364 237H141L196.75 162H252.5Z" fill="#156949"/>
<path d="M364 237L308.25 162M141 237L196.75 162M196.75 162H252.5H308.25M196.75 162H308.25" stroke="#093524" stroke-width="2"/>
<path d="M377 178H428L459 217H408L377 178Z" fill="#C7F360"/>
<path d="M364 189H439" stroke="#093524" stroke-width="2"/>
<path d="M380 201H455" stroke="#093524" stroke-width="2"/>
<path d="M402 176L440 223.5" stroke="#093524" stroke-width="2"/>
<path d="M449 178H500L531 217H480L449 178Z" fill="#C7F360"/>
<path d="M436 189H511" stroke="#093524" stroke-width="2"/>
<path d="M452 201H527" stroke="#093524" stroke-width="2"/>
<path d="M474 176L512 223.5" stroke="#093524" stroke-width="2"/>
<path d="M518 178H569L600 217H549L518 178Z" fill="#C7F360"/>
<path d="M505 189H580" stroke="#093524" stroke-width="2"/>
<path d="M521 201H596" stroke="#093524" stroke-width="2"/>
<path d="M543 176L581 223.5" stroke="#093524" stroke-width="2"/>
<rect x="37" y="533" width="1039" height="2" fill="#093524"/>
<rect x="418" y="590" width="87" height="91" fill="#F4F5F5"/>
<rect x="418" y="578" width="87" height="24" rx="12" fill="#F4F5F5"/>
<rect x="418" y="658" width="87" height="23" fill="#156949"/>
<rect x="418" y="646" width="87" height="24" rx="12" fill="#C7F360"/>
<rect x="450" y="575" width="23" height="12" fill="#F4F5F5"/>
<rect x="450" y="572" width="23" height="6" rx="3" fill="#F4F5F5"/>
<path d="M469.832 611L448 639.063H458.071L454.168 661L476 632.937H465.929L469.832 611Z" fill="#093524"/>
<path d="M462 397V572" stroke="#156949" stroke-width="2" stroke-dasharray="4 4"/>
<rect x="791" y="425" width="38" height="40" fill="#C7F360"/>
<path d="M814.476 430L802 446.277H807.755L805.524 459L818 442.723H812.245L814.476 430Z" fill="#093524"/>
<path d="M810 465V490C810 496.627 815.373 502 822 502H905" stroke="#156949" stroke-width="2" stroke-dasharray="4 4"/>
<rect x="865" y="483.4" width="177.312" height="36.8007" rx="18.4004" fill="#156949"/>
<path fill-rule="evenodd" clip-rule="evenodd" d="M953.236 465H931.072C920.91 465 912.672 473.238 912.672 483.4H953.236V465Z" fill="#F4F5F5"/>
<path d="M993.801 483.4C993.801 473.238 985.563 465 975.4 465H953.236V483.4H993.801Z" fill="#156949"/>
<rect x="904.289" y="511.818" width="16.7642" height="15.9278" rx="7.96389" fill="#F4F5F5" stroke="#093524" stroke-width="10"/>
<rect x="985.422" y="511.818" width="16.7642" height="15.9278" rx="7.96389" fill="#F4F5F5" stroke="#093524" stroke-width="10"/>
</svg>
