<svg width="1206" height="772" viewBox="0 0 1206 772" fill="none" xmlns="http://www.w3.org/2000/svg">
<rect x="0.5" y="0.5" width="1205" height="771" stroke="black"/>
<path d="M224 235H533.5L645 310V533H224V235Z" fill="#093524"/>
<rect x="112" y="310" width="223" height="223" fill="#156949"/>
<rect x="204" y="447" width="39" height="86" fill="#093524"/>
<rect x="335" y="310" width="310" height="223" fill="#156949"/>
<path d="M223.5 235L335 310H112L223.5 235Z" fill="#156949"/>
<path d="M335 310L223.5 236L112 310" stroke="#093524" stroke-width="2" stroke-linejoin="bevel"/>
<rect x="203" y="339" width="40" height="39" fill="#093524"/>
<path d="M223 333V385.5" stroke="#156949" stroke-width="2"/>
<path d="M249.5 359H197" stroke="#156949" stroke-width="2"/>
<path d="M334 227H644L868 302V534H334V227Z" fill="#093524"/>
<rect x="427" y="447.711" width="39" height="86.2886" fill="#093524"/>
<rect x="426" y="339.35" width="40" height="39.1309" fill="#093524"/>
<rect x="334" y="311" width="224" height="223" fill="#156949"/>
<rect x="426.414" y="448" width="39.1749" height="86" fill="#093524"/>
<path d="M558 311H334V236L558 311Z" fill="#156949"/>
<path d="M558 311L334 236" stroke="#093524" stroke-width="2"/>
<rect x="425.406" y="340" width="40.1794" height="39" fill="#093524"/>
<path d="M445.5 334V386.5" stroke="#156949" stroke-width="2"/>
<path d="M472.117 360H419.382" stroke="#156949" stroke-width="2"/>
<rect x="558" y="313" width="310" height="221" fill="#F4F5F5"/>
<rect x="646" y="312" width="221" height="221" fill="#F4F5F5" stroke="#093524" stroke-width="2"/>
<mask id="path-23-inside-1_9006_6118" fill="white">
<path d="M558 313H868V534H558V313Z"/>
</mask>
<path d="M868 534V536H870V534H868ZM558 534H556V536H558V534ZM868 313H866V534H868H870V313H868ZM868 534V532H558V534V536H868V534ZM558 534H560V313H558H556V534H558Z" fill="#156949" mask="url(#path-23-inside-1_9006_6118)"/>
<mask id="mask0_9006_6118" style="mask-type:alpha" maskUnits="userSpaceOnUse" x="507" y="254" width="102" height="39">
<path d="M507 254H558L609 293H558L507 254Z" fill="#C7F360"/>
</mask>
<g mask="url(#mask0_9006_6118)">
<path d="M507 254H558L609 293H558L507 254Z" fill="#C7F360"/>
<path d="M514 265H589" stroke="#093524" stroke-width="2"/>
<path d="M530 277H605" stroke="#093524" stroke-width="2"/>
<path d="M532 252L589 295" stroke="#093524" stroke-width="2"/>
</g>
<mask id="mask1_9006_6118" style="mask-type:alpha" maskUnits="userSpaceOnUse" x="583" y="254" width="102" height="39">
<path d="M583 254H634L685 293H634L583 254Z" fill="#C7F360"/>
</mask>
<g mask="url(#mask1_9006_6118)">
<path d="M583 254H634L685 293H634L583 254Z" fill="#C7F360"/>
<path d="M590 265H665" stroke="#093524" stroke-width="2"/>
<path d="M606 277H681" stroke="#093524" stroke-width="2"/>
<path d="M608 252L665 295" stroke="#093524" stroke-width="2"/>
</g>
<mask id="mask2_9006_6118" style="mask-type:alpha" maskUnits="userSpaceOnUse" x="655" y="254" width="102" height="39">
<path d="M655 254H706L757 293H706L655 254Z" fill="#C7F360"/>
</mask>
<g mask="url(#mask2_9006_6118)">
<path d="M655 254H706L757 293H706L655 254Z" fill="#C7F360"/>
<path d="M662 265H737" stroke="#093524" stroke-width="2"/>
<path d="M678 277H753" stroke="#093524" stroke-width="2"/>
<path d="M680 252L737 295" stroke="#093524" stroke-width="2"/>
</g>
<rect x="55" y="532" width="1039" height="2" fill="#093524"/>
<rect x="556" y="589" width="87" height="91" fill="#F4F5F5"/>
<rect x="556" y="577" width="87" height="24" rx="12" fill="#F4F5F5"/>
<rect x="556" y="657" width="87" height="23" fill="#156949"/>
<rect x="556" y="645" width="87" height="24" rx="12" fill="#C7F360"/>
<rect x="588" y="574" width="23" height="12" fill="#F4F5F5"/>
<rect x="588" y="571" width="23" height="6" rx="3" fill="#F4F5F5"/>
<path d="M607.832 610L586 638.063H596.071L592.168 660L614 631.937H603.929L607.832 610Z" fill="#093524"/>
<path d="M600 313V571" stroke="#156949" stroke-width="2" stroke-dasharray="4 4"/>
<rect x="779" y="424" width="38" height="40" fill="#C7F360"/>
<path d="M802.476 429L790 445.277H795.755L793.524 458L806 441.723H800.245L802.476 429Z" fill="#093524"/>
<path d="M798 463V489C798 495.627 803.373 501 810 501H893" stroke="#156949" stroke-width="2" stroke-dasharray="4 4"/>
<rect x="893" y="482.4" width="177.312" height="36.8007" rx="18.4004" fill="#156949"/>
<path fill-rule="evenodd" clip-rule="evenodd" d="M981.236 464H959.072C948.91 464 940.672 472.238 940.672 482.4H981.236V464Z" fill="#F4F5F5"/>
<path d="M1021.8 482.4C1021.8 472.238 1013.56 464 1003.4 464H981.236V482.4H1021.8Z" fill="#156949"/>
<rect x="932.289" y="510.818" width="16.7642" height="15.9278" rx="7.96389" fill="#F4F5F5" stroke="#093524" stroke-width="10"/>
<rect x="1013.42" y="510.818" width="16.7642" height="15.9278" rx="7.96389" fill="#F4F5F5" stroke="#093524" stroke-width="10"/>
</svg>
