<svg width="811" height="772" viewBox="0 0 811 772" fill="none" xmlns="http://www.w3.org/2000/svg">
<path d="M27 228H466.457L784 303V535H27V228Z" fill="#093524"/>
<rect x="158.836" y="448.711" width="55.2865" height="86.2886" fill="#093524"/>
<rect x="344.543" y="311.252" width="439.457" height="223.748" fill="#156949"/>
<rect x="486.305" y="409.58" width="56.7041" height="39.1309" fill="#093524"/>
<rect x="584.117" y="409.58" width="56.7041" height="39.1309" fill="#093524"/>
<rect x="157.418" y="340.35" width="56.7041" height="39.1309" fill="#093524"/>
<path d="M514.656 403.561V456.237" stroke="#156949" stroke-width="2"/>
<path d="M552.223 429.648H477.798" stroke="#156949" stroke-width="2"/>
<path d="M612.469 403.561V456.237" stroke="#156949" stroke-width="2"/>
<path d="M650.039 429.648H575.615" stroke="#156949" stroke-width="2"/>
<rect x="27" y="312" width="317.543" height="223" fill="#F4F5F5"/>
<path d="M344.543 312H27V237L344.543 312Z" fill="#F4F5F5"/>
<path d="M344.543 312L27 237" stroke="#093524" stroke-width="2"/>
<path d="M27 103H560L784 178V410H27V103Z" fill="#093524"/>
<rect x="120" y="448.711" width="39" height="86.2886" fill="#093524"/>
<rect x="251" y="311" width="533" height="224" fill="#156949"/>
<rect x="351" y="409.58" width="40" height="39.1309" fill="#093524"/>
<rect x="119" y="340.35" width="40" height="39.1309" fill="#093524"/>
<path d="M371 403.561V456.237" stroke="#156949" stroke-width="2"/>
<path d="M397.5 429.648H345" stroke="#156949" stroke-width="2"/>
<rect x="420" y="409.58" width="40" height="39.1309" fill="#093524"/>
<path d="M440 403.561V456.237" stroke="#156949" stroke-width="2"/>
<path d="M466.5 429.648H414" stroke="#156949" stroke-width="2"/>
<rect x="489" y="410.02" width="40" height="39.1309" fill="#093524"/>
<path d="M509 404V456.676" stroke="#156949" stroke-width="2"/>
<path d="M535.5 430.088H483" stroke="#156949" stroke-width="2"/>
<rect x="558" y="410.02" width="40" height="39.1309" fill="#093524"/>
<path d="M578 404V456.676" stroke="#156949" stroke-width="2"/>
<path d="M604.5 430.088H552" stroke="#156949" stroke-width="2"/>
<rect x="627" y="410.02" width="40" height="39.1309" fill="#093524"/>
<path d="M647 404V456.676" stroke="#156949" stroke-width="2"/>
<path d="M673.5 430.088H621" stroke="#156949" stroke-width="2"/>
<rect x="251" y="186" width="533" height="224" fill="#156949"/>
<rect x="351" y="284.58" width="40" height="39.1309" fill="#093524"/>
<path d="M371 278.561V331.237" stroke="#156949" stroke-width="2"/>
<path d="M397.5 304.648H345" stroke="#156949" stroke-width="2"/>
<rect x="420" y="284.58" width="40" height="39.1309" fill="#093524"/>
<path d="M440 278.561V331.237" stroke="#156949" stroke-width="2"/>
<path d="M466.5 304.648H414" stroke="#156949" stroke-width="2"/>
<rect x="489" y="285.02" width="40" height="39.1309" fill="#093524"/>
<path d="M509 279V331.676" stroke="#156949" stroke-width="2"/>
<path d="M535.5 305.088H483" stroke="#156949" stroke-width="2"/>
<rect x="558" y="285.02" width="40" height="39.1309" fill="#093524"/>
<path d="M578 279V331.676" stroke="#156949" stroke-width="2"/>
<path d="M604.5 305.088H552" stroke="#156949" stroke-width="2"/>
<rect x="627" y="285.02" width="40" height="39.1309" fill="#093524"/>
<path d="M647 279V331.676" stroke="#156949" stroke-width="2"/>
<path d="M673.5 305.088H621" stroke="#156949" stroke-width="2"/>
<rect x="27" y="186" width="224" height="349" fill="#F4F5F5"/>
<rect x="119.414" y="449" width="39.1749" height="86" fill="#093524"/>
<path d="M250 186H26V111L250 186Z" fill="#F4F5F5"/>
<path d="M251 186L27 111" stroke="#093524" stroke-width="2"/>
<rect x="118.406" y="341" width="40.1794" height="39" fill="#093524"/>
<path d="M138.496 335V387.5" stroke="#F4F5F5" stroke-width="2"/>
<path d="M165.117 361H112.382" stroke="#F4F5F5" stroke-width="2"/>
<rect x="118.023" y="264" width="40.1794" height="39" fill="#093524"/>
<path d="M138.117 258V310.5" stroke="#F4F5F5" stroke-width="2"/>
<path d="M164.738 284H112.003" stroke="#F4F5F5" stroke-width="2"/>
</svg>
