<svg width="1113" height="772" viewBox="0 0 1113 772" fill="none" xmlns="http://www.w3.org/2000/svg">
<path d="M234.5 228L734.5 227L790.5 302V535H234.5L234.5 228Z" fill="#093524"/>
<rect x="364" y="304" width="427" height="231" fill="#156949"/>
<rect x="364" y="304" width="147" height="231" fill="#F4F5F5"/>
<rect x="406" y="303" width="104" height="231" fill="#F4F5F5" stroke="#093524" stroke-width="2"/>
<mask id="path-6-inside-1_9006_7318" fill="white">
<path d="M364 304H511V535H364V304Z"/>
</mask>
<path d="M511 535V537H513V535H511ZM364 535H362V537H364V535ZM511 304H509V535H511H513V304H511ZM511 535V533H364V535V537H511V535ZM364 535H366V304H364H362V535H364Z" fill="#156949" mask="url(#path-6-inside-1_9006_7318)"/>
<rect x="509" y="304" width="145" height="231" fill="#156949"/>
<rect x="564" y="449" width="39" height="86" fill="#093524"/>
<rect x="705" y="449" width="39" height="86" fill="#093524"/>
<rect x="232" y="410" width="40" height="39" fill="#093524"/>
<rect x="232" y="341" width="40" height="39" fill="#093524"/>
<rect x="564" y="341" width="40" height="39" fill="#093524"/>
<rect x="705" y="341" width="40" height="39" fill="#093524"/>
<path d="M509 535V304" stroke="#156949" stroke-width="2"/>
<path d="M654 535V304" stroke="#F4F5F5" stroke-width="2"/>
<path d="M252 335V387.5" stroke="#156949" stroke-width="2"/>
<path d="M278.5 361H226" stroke="#156949" stroke-width="2"/>
<path d="M252 404V456.5" stroke="#156949" stroke-width="2"/>
<path d="M278.5 430H226" stroke="#156949" stroke-width="2"/>
<rect x="141" y="304" width="223" height="231" fill="#156949"/>
<rect x="232" y="333.135" width="40" height="40.5811" fill="#093524"/>
<rect x="232" y="410" width="40" height="39" fill="#093524"/>
<rect x="232" y="341" width="40" height="39" fill="#093524"/>
<path d="M252 335V387.5" stroke="#156949" stroke-width="2"/>
<path d="M278.5 361H226" stroke="#156949" stroke-width="2"/>
<path d="M252 404V456.5" stroke="#156949" stroke-width="2"/>
<path d="M278.5 430H226" stroke="#156949" stroke-width="2"/>
<path d="M252.5 229H308.25L364 304H141L196.75 229H252.5Z" fill="#156949"/>
<path d="M364 304L308.25 229M141 304L196.75 229M196.75 229H252.5H308.25M196.75 229H308.25" stroke="#093524" stroke-width="2"/>
<path d="M377 245H428L459 284H408L377 245Z" fill="#C7F360"/>
<path d="M364 256H439" stroke="#093524" stroke-width="2"/>
<path d="M380 268H455" stroke="#093524" stroke-width="2"/>
<path d="M402 243L440 290.5" stroke="#093524" stroke-width="2"/>
<path d="M449 245H500L531 284H480L449 245Z" fill="#C7F360"/>
<path d="M436 256H511" stroke="#093524" stroke-width="2"/>
<path d="M452 268H527" stroke="#093524" stroke-width="2"/>
<path d="M474 243L512 290.5" stroke="#093524" stroke-width="2"/>
<path d="M518 245H569L600 284H549L518 245Z" fill="#C7F360"/>
<path d="M505 256H580" stroke="#093524" stroke-width="2"/>
<path d="M521 268H596" stroke="#093524" stroke-width="2"/>
<path d="M543 243L581 290.5" stroke="#093524" stroke-width="2"/>
<rect x="37" y="533" width="1039" height="2" fill="#093524"/>
<rect x="418" y="590" width="87" height="91" fill="#F4F5F5"/>
<rect x="418" y="578" width="87" height="24" rx="12" fill="#F4F5F5"/>
<rect x="418" y="658" width="87" height="23" fill="#156949"/>
<rect x="418" y="646" width="87" height="24" rx="12" fill="#C7F360"/>
<rect x="450" y="575" width="23" height="12" fill="#F4F5F5"/>
<rect x="450" y="572" width="23" height="6" rx="3" fill="#F4F5F5"/>
<path d="M469.934 611L448 638.934H458.118L454.197 660.769L476.13 632.836H466.013L469.934 611Z" fill="#093524"/>
<path d="M462 304V572" stroke="#156949" stroke-width="2" stroke-dasharray="4 4"/>
<rect x="791" y="425" width="38" height="40" fill="#C7F360"/>
<path d="M814.476 430L802 446.277H807.755L805.524 459L818 442.723H812.245L814.476 430Z" fill="#093524"/>
<path d="M810 465V490C810 496.627 815.373 502 822 502H905" stroke="#156949" stroke-width="2" stroke-dasharray="4 4"/>
<rect x="865" y="483.4" width="177.312" height="36.8007" rx="18.4004" fill="#156949"/>
<path fill-rule="evenodd" clip-rule="evenodd" d="M953.236 465H931.072C920.91 465 912.672 473.238 912.672 483.4H953.236V465Z" fill="#F4F5F5"/>
<path d="M993.801 483.4C993.801 473.238 985.563 465 975.4 465H953.236V483.4H993.801Z" fill="#156949"/>
<rect x="904.289" y="511.818" width="16.7642" height="15.9278" rx="7.96389" fill="#F4F5F5" stroke="#093524" stroke-width="10"/>
<rect x="985.422" y="511.818" width="16.7642" height="15.9278" rx="7.96389" fill="#F4F5F5" stroke="#093524" stroke-width="10"/>
</svg>
