<svg width="811" height="772" viewBox="0 0 811 772" fill="none" xmlns="http://www.w3.org/2000/svg">
<path d="M249.5 236L616 235L672 310V534H249.5V236Z" fill="#093524"/>
<rect x="231" y="448.711" width="39" height="86.2886" fill="#093524"/>
<rect x="362" y="311.252" width="310" height="223.748" fill="#156949"/>
<rect x="462" y="409.58" width="40" height="39.1309" fill="#093524"/>
<rect x="531" y="409.58" width="40" height="39.1309" fill="#093524"/>
<rect x="230" y="340.35" width="40" height="39.1309" fill="#093524"/>
<path d="M482 403.561V456.237" stroke="#156949" stroke-width="2"/>
<path d="M508.5 429.648H456" stroke="#156949" stroke-width="2"/>
<path d="M551 403.561V456.237" stroke="#156949" stroke-width="2"/>
<path d="M577.5 429.648H525" stroke="#156949" stroke-width="2"/>
<rect x="138" y="312" width="223" height="223" fill="#F4F5F5"/>
<rect x="230" y="449" width="39" height="86" fill="#093524"/>
<path d="M249.5 237H305.25L361 312H138L193.75 237H249.5Z" fill="#F4F5F5"/>
<path d="M361 312L305.25 237M138 312L193.75 237M193.75 237H249.5H305.25M193.75 237H305.25" stroke="#093524" stroke-width="2"/>
<rect x="229" y="341" width="40" height="39" fill="#093524"/>
<path d="M249 335V387.5" stroke="#F4F5F5" stroke-width="2"/>
<path d="M275.5 361H223" stroke="#F4F5F5" stroke-width="2"/>
</svg>
